<svg viewBox="0 0 24 24" xmlns="http://www.w3.org/2000/svg">
<path
    fill-rule="evenodd"
    clip-rule="evenodd"
    d="M3 9H5.37174V8.67977C5.10928 8.55056 4.83082 8.4691 4.53635 8.43539L5.10288 7.09551H7.23457L7.79149 8.43539C7.66347 8.45787 7.52904 8.49157 7.3882 8.53652C7.24737 8.58146 7.11614 8.62921 6.99451 8.67977V9H10V8.67977C9.90398 8.62359 9.79195 8.57584 9.66392 8.53652C9.53589 8.49157 9.40787 8.45787 9.27984 8.43539L6.86968 3H6.15912L3.68176 8.43539C3.56653 8.45787 3.4481 8.49157 3.32647 8.53652C3.21125 8.57584 3.10242 8.62359 3 8.67977V9ZM7.03292 6.54775H5.33333L5.99588 4.95506L6.20713 4.21348H6.22634L6.40878 4.9382L7.03292 6.54775ZM11 5H21V3H11V5ZM11 9H21V7H11V9ZM3 13V11H21V13H3ZM3 15V17H21V15H3ZM3 21V19H21V21H3Z"
  />
</svg>
