<svg viewBox="0 0 24 24" xmlns="http://www.w3.org/2000/svg">
<path
    fill-rule="evenodd"
    clip-rule="evenodd"
    d="M8 4.5C8 3.94772 8.44772 3.5 9 3.5H20C20.5523 3.5 21 3.94772 21 4.5C21 5.05228 20.5523 5.5 20 5.5H9C8.44772 5.5 8 5.05228 8 4.5Z"
  />
<path
    fill-rule="evenodd"
    clip-rule="evenodd"
    d="M8 12C8 11.4477 8.44772 11 9 11H20C20.5523 11 21 11.4477 21 12C21 12.5523 20.5523 13 20 13H9C8.44772 13 8 12.5523 8 12Z"
  />
<path
    fill-rule="evenodd"
    clip-rule="evenodd"
    d="M8 19.5C8 18.9477 8.44772 18.5 9 18.5H20C20.5523 18.5 21 18.9477 21 19.5C21 20.0523 20.5523 20.5 20 20.5H9C8.44772 20.5 8 20.0523 8 19.5Z"
  />
<path d="M4.27072 6V3.7875L3.9558 4.07917H3L4.1989 3H5V6H4.27072Z" />
<path
    d="M3 13V11.85C3 11.7417 3.02665 11.6444 3.07994 11.5583C3.13324 11.4722 3.20337 11.4042 3.29032 11.3542C3.37728 11.3014 3.47405 11.275 3.58065 11.275H5.39832C5.41234 11.275 5.42356 11.2708 5.43198 11.2625C5.4432 11.2514 5.44881 11.2389 5.44881 11.225V10.5958C5.44881 10.5819 5.4432 10.5708 5.43198 10.5625C5.42356 10.5514 5.41234 10.5458 5.39832 10.5458H3.60168C3.58766 10.5458 3.57504 10.5514 3.56381 10.5625C3.5554 10.5708 3.55119 10.5819 3.55119 10.5958V10.8H3V10.575C3 10.4667 3.02665 10.3694 3.07994 10.2833C3.13324 10.1972 3.20337 10.1292 3.29032 10.0792C3.37728 10.0264 3.47405 10 3.58065 10H5.41935C5.52595 10 5.62272 10.0264 5.70968 10.0792C5.79944 10.1292 5.86957 10.1972 5.92006 10.2833C5.97335 10.3694 6 10.4667 6 10.575V11.25C6 11.3528 5.97335 11.4486 5.92006 11.5375C5.86957 11.6236 5.79944 11.6931 5.70968 11.7458C5.62272 11.7986 5.52595 11.825 5.41935 11.825H3.60168C3.58766 11.825 3.57504 11.8306 3.56381 11.8417C3.5554 11.85 3.55119 11.8611 3.55119 11.875V12.4042C3.55119 12.4181 3.5554 12.4306 3.56381 12.4417C3.57504 12.45 3.58766 12.4542 3.60168 12.4542H6V13H3Z"
  />
<path
    d="M3.5838 21C3.4746 21 3.3766 20.9736 3.2898 20.9208C3.203 20.8681 3.133 20.7986 3.0798 20.7125C3.0266 20.6264 3 20.5306 3 20.425V20.2458H3.5502V20.4042C3.5502 20.4181 3.5544 20.4306 3.5628 20.4417C3.574 20.45 3.5866 20.4542 3.6006 20.4542H5.394C5.408 20.4542 5.4206 20.45 5.4318 20.4417C5.443 20.4306 5.4486 20.4181 5.4486 20.4042V19.8042C5.4486 19.7903 5.443 19.7792 5.4318 19.7708C5.4206 19.7597 5.408 19.7542 5.394 19.7542H3.5208V19.2083H5.2764C5.2904 19.2083 5.3016 19.2042 5.31 19.1958C5.3212 19.1847 5.3268 19.1722 5.3268 19.1583V18.5958C5.3268 18.5819 5.3212 18.5708 5.31 18.5625C5.3016 18.5514 5.2904 18.5458 5.2764 18.5458H3.6006C3.5866 18.5458 3.574 18.5514 3.5628 18.5625C3.5544 18.5708 3.5502 18.5819 3.5502 18.5958V18.7917H3V18.575C3 18.4667 3.0266 18.3694 3.0798 18.2833C3.133 18.1972 3.203 18.1292 3.2898 18.0792C3.3766 18.0264 3.4746 18 3.5838 18H5.2974C5.4066 18 5.5046 18.0264 5.5914 18.0792C5.6782 18.1292 5.7468 18.1972 5.7972 18.2833C5.8504 18.3694 5.877 18.4667 5.877 18.575V19.1833C5.877 19.2167 5.8742 19.2514 5.8686 19.2875C5.863 19.3208 5.8546 19.3528 5.8434 19.3833C5.8938 19.4361 5.9316 19.4986 5.9568 19.5708C5.9848 19.6403 5.9988 19.7111 5.9988 19.7833V20.425C5.9988 20.5306 5.9722 20.6264 5.919 20.7125C5.8658 20.7986 5.7958 20.8681 5.709 20.9208C5.6222 20.9736 5.5256 21 5.4192 21H3.5838Z"
  />
</svg>
