<svg viewBox="0 0 24 24" xmlns="http://www.w3.org/2000/svg">
<path
    fill-rule="evenodd"
    clip-rule="evenodd"
    d="M14 4C14 2.34315 15.3431 1 17 1H19C20.6569 1 22 2.34315 22 4V6C22 7.65685 20.6569 9 19 9H17C16.3965 9 15.8346 8.82181 15.3641 8.51517L10 11.5804V13C10 13.1329 9.99136 13.2637 9.97461 13.392L15.6802 15.2939L15.6757 15.3074C16.0751 15.1106 16.5246 15 17 15H19C20.6569 15 22 16.3431 22 18V20C22 21.6569 20.6569 23 19 23H17C15.3431 23 14 21.6569 14 20V18C14 17.6155 14.0723 17.2479 14.2041 16.9101L9.04866 15.1916C8.51245 15.693 7.79207 16 7 16H5C3.34315 16 2 14.6569 2 13V11C2 9.34315 3.34315 8 5 8H7C8.11236 8 9.08331 8.6054 9.60136 9.50469L14.1407 6.91075C14.0493 6.62352 14 6.31752 14 6V4ZM17 3C16.4477 3 16 3.44772 16 4V6C16 6.55228 16.4477 7 17 7H19C19.5523 7 20 6.55228 20 6V4C20 3.44772 19.5523 3 19 3H17ZM5 10C4.44772 10 4 10.4477 4 11V13C4 13.5523 4.44772 14 5 14H7C7.55228 14 8 13.5523 8 13V11C8 10.4477 7.55228 10 7 10H5ZM16 18C16 17.4477 16.4477 17 17 17H19C19.5523 17 20 17.4477 20 18V20C20 20.5523 19.5523 21 19 21H17C16.4477 21 16 20.5523 16 20V18Z"
  />
</svg>
