<svg viewBox="0 0 24 24" xmlns="http://www.w3.org/2000/svg">
<path
    fill-rule="evenodd"
    clip-rule="evenodd"
    d="M12 21.9C17.4676 21.9 21.9 17.4676 21.9 12C21.9 6.53238 17.4676 2.1 12 2.1C6.53238 2.1 2.1 6.53238 2.1 12C2.1 17.4676 6.53238 21.9 12 21.9ZM12 23C18.0751 23 23 18.0751 23 12C23 5.92487 18.0751 1 12 1C5.92487 1 1 5.92487 1 12C1 18.0751 5.92487 23 12 23Z"
  />
<path
    d="M14.2 17.5C14.2 18.715 13.215 19.7 12 19.7C10.785 19.7 9.8 18.715 9.8 17.5C9.8 16.285 10.785 15.3 12 15.3C13.215 15.3 14.2 16.285 14.2 17.5Z"
  />
<path
    fill-rule="evenodd"
    clip-rule="evenodd"
    d="M7.21109 8.31109C7.42588 8.0963 7.77412 8.0963 7.98891 8.31109L8.7 9.02218L9.41109 8.31109C9.62588 8.0963 9.97412 8.0963 10.1889 8.31109C10.4037 8.52588 10.4037 8.87412 10.1889 9.08891L9.47782 9.8L10.1889 10.5111C10.4037 10.7259 10.4037 11.0741 10.1889 11.2889C9.97412 11.5037 9.62588 11.5037 9.41109 11.2889L8.7 10.5778L7.98891 11.2889C7.77412 11.5037 7.42588 11.5037 7.21109 11.2889C6.9963 11.0741 6.9963 10.7259 7.21109 10.5111L7.92218 9.8L7.21109 9.08891C6.9963 8.87412 6.9963 8.52588 7.21109 8.31109ZM13.8111 8.31109C14.0259 8.0963 14.3741 8.0963 14.5889 8.31109L15.3 9.02218L16.0111 8.31109C16.2259 8.0963 16.5741 8.0963 16.7889 8.31109C17.0037 8.52588 17.0037 8.87412 16.7889 9.08891L16.0778 9.8L16.7889 10.5111C17.0037 10.7259 17.0037 11.0741 16.7889 11.2889C16.5741 11.5037 16.2259 11.5037 16.0111 11.2889L15.3 10.5778L14.5889 11.2889C14.3741 11.5037 14.0259 11.5037 13.8111 11.2889C13.5963 11.0741 13.5963 10.7259 13.8111 10.5111L14.5222 9.8L13.8111 9.08891C13.5963 8.87412 13.5963 8.52588 13.8111 8.31109Z"
  />
</svg>
