<svg viewBox="0 0 24 24" xmlns="http://www.w3.org/2000/svg">
<path
    fill-rule="evenodd"
    clip-rule="evenodd"
    d="M14.7232 2.4819C12.4717 1.83776 10.0649 2.01256 7.93017 2.97524C5.79545 3.93791 4.07109 5.62614 3.06343 7.74C2.05577 9.85386 1.83005 12.2565 2.42638 14.521C3.02271 16.7856 4.40247 18.7654 6.32054 20.1089C8.23861 21.4523 10.5708 22.0723 12.9028 21.8587C15.2348 21.6452 17.4156 20.6119 19.0577 18.9425L19.8419 19.7138C18.0173 21.5688 15.5942 22.7169 13.0031 22.9541C10.412 23.1914 7.82068 22.5025 5.68949 21.0098C3.5583 19.5171 2.02523 17.3173 1.36265 14.8011C0.700059 12.285 0.950854 9.61541 2.07048 7.26667C3.1901 4.91794 5.10605 3.04213 7.47796 1.97248C9.84987 0.902841 12.5242 0.708622 15.0257 1.42433C17.5273 2.14004 19.6942 3.71934 21.1414 5.88166C22.5887 8.04397 23.2225 10.6493 22.9305 13.2348L21.8374 13.1113C22.1003 10.7844 21.5298 8.43958 20.2273 6.49349C18.9248 4.54741 16.9746 3.12604 14.7232 2.4819Z"
  />
<path
    d="M9.79999 9.79999C9.79999 11.015 9.3075 12 8.69999 12C8.09248 12 7.59999 11.015 7.59999 9.79999C7.59999 8.58496 8.09248 7.59999 8.69999 7.59999C9.3075 7.59999 9.79999 8.58496 9.79999 9.79999Z"
  />
<path
    fill-rule="evenodd"
    clip-rule="evenodd"
    d="M14.9391 9.27208C14.5494 9.20028 14.0525 9.27747 13.5122 9.8891C13.3111 10.1167 12.9635 10.1383 12.7358 9.93715C12.5082 9.73604 12.4867 9.38846 12.6878 9.16082C13.4675 8.2783 14.3456 8.0442 15.1384 8.1903C15.8838 8.32766 16.4813 8.78626 16.8122 9.16082C17.0133 9.38846 16.9918 9.73604 16.7641 9.93715C16.5365 10.1383 16.1889 10.1167 15.9878 9.8891C15.7687 9.64109 15.3761 9.35262 14.9391 9.27208Z"
  />
<path
    fill-rule="evenodd"
    clip-rule="evenodd"
    d="M11.485 14.5569C11.5917 14.2725 11.9087 14.1284 12.1931 14.235C12.4862 14.3449 12.9337 14.3891 13.4395 14.3827C13.9308 14.3765 14.4189 14.3241 14.7603 14.2777C15.1128 14.2297 15.3684 14.4558 15.4637 14.6827C15.5595 14.9107 15.5416 15.2563 15.2526 15.4731L14.0167 16.4L15.2526 17.3269C15.5416 17.5437 15.5595 17.8893 15.4637 18.1173C15.3684 18.3442 15.1128 18.5703 14.7603 18.5223C14.4189 18.4759 13.9308 18.4235 13.4395 18.4173C12.9337 18.4109 12.4862 18.4551 12.1931 18.565C11.9087 18.6716 11.5917 18.5275 11.485 18.2431C11.3784 17.9587 11.5225 17.6417 11.8069 17.535C12.2838 17.3562 12.8786 17.313 13.4058 17.3169L12.8873 16.928C12.5353 16.664 12.5353 16.136 12.8873 15.872L13.4058 15.4831C12.8786 15.4869 12.2838 15.4438 11.8069 15.265C11.5225 15.1583 11.3784 14.8413 11.485 14.5569Z"
  />
<path
    fill-rule="evenodd"
    clip-rule="evenodd"
    d="M20.25 18.6L19.35 17.9105L19.3442 17.906L19.3309 17.8958C19.3197 17.8871 19.3039 17.8749 19.2842 17.8595C19.2448 17.8288 19.1893 17.7853 19.1232 17.7325C18.992 17.6278 18.8134 17.4825 18.6316 17.3258C18.4558 17.1743 18.2503 16.9893 18.0792 16.8091C17.9961 16.7216 17.8911 16.604 17.7982 16.4705C17.7515 16.4035 17.689 16.3057 17.6341 16.1848C17.5856 16.078 17.5 15.8611 17.5 15.5794C17.5 14.8176 18.1449 14.2 18.9405 14.2C19.5128 14.2 20.0072 14.5197 20.2396 14.9828C20.243 14.9862 20.2464 14.9897 20.25 14.9932C20.2535 14.9897 20.257 14.9862 20.2604 14.9828C20.4927 14.5197 20.9871 14.2 21.5595 14.2C22.355 14.2 23 14.8176 23 15.5794C23 15.8611 22.9143 16.078 22.8658 16.1848C22.8109 16.3057 22.7484 16.4035 22.7018 16.4705C22.6088 16.604 22.5038 16.7216 22.4207 16.8091C22.2496 16.9893 22.0442 17.1743 21.8684 17.3258C21.6865 17.4825 21.5079 17.6278 21.3768 17.7325C21.3106 17.7853 21.2552 17.8288 21.2158 17.8595C21.1961 17.8749 21.1803 17.8871 21.1691 17.8958L21.1558 17.906L21.1502 17.9103L20.25 18.6Z"
  />
</svg>
