<svg viewBox="0 0 24 24" xmlns="http://www.w3.org/2000/svg">
<path
    d="M16.0164 8.60656C15.9672 7.81967 15.7787 7.07377 15.4508 6.36885C15.123 5.66393 14.6475 5.09016 14.0246 4.64754C13.4016 4.20492 12.6066 3.98361 11.6393 3.98361C10.623 3.98361 9.84426 4.27049 9.30328 4.84426C8.7623 5.41803 8.4918 6.09016 8.4918 6.86066C8.4918 7.54918 8.68852 8.13115 9.08197 8.60656C9.47541 9.06557 9.98361 9.47541 10.6066 9.83607C11.2459 10.1803 11.918 10.5164 12.623 10.8443C13.2459 11.123 13.8689 11.4262 14.4918 11.7541C15.1148 12.0656 15.6803 12.4262 16.1885 12.8361C16.6967 13.2459 17.0984 13.7377 17.3934 14.3115C17.7049 14.8689 17.8607 15.541 17.8607 16.3279C17.8607 17.2295 17.6311 18.0328 17.1721 18.7377C16.7295 19.4426 16.082 20 15.2295 20.4098C14.3771 20.8033 13.3361 21 12.1066 21C11.3689 21 10.6066 20.8934 9.81967 20.6803C9.03279 20.4672 8.33607 20.1557 7.72951 19.7459L7.85246 20.8033H6.57377L6.42623 15.5656H7.38525C7.46721 17.0082 7.96721 18.1066 8.88525 18.8607C9.80328 19.5984 10.9098 19.9672 12.2049 19.9672C12.8443 19.9672 13.4344 19.8525 13.9754 19.623C14.5164 19.3771 14.9426 19.0246 15.2541 18.5656C15.582 18.1066 15.7459 17.5492 15.7459 16.8934C15.7459 16.1557 15.5492 15.541 15.1557 15.0492C14.7623 14.5574 14.2541 14.1311 13.6311 13.7705C13.0082 13.4098 12.3443 13.0656 11.6393 12.7377C11.0164 12.459 10.4016 12.1639 9.79508 11.8525C9.18852 11.541 8.63115 11.1885 8.12295 10.7951C7.63115 10.3852 7.22951 9.90164 6.91803 9.34426C6.62295 8.78689 6.47541 8.11475 6.47541 7.32787C6.47541 6.90164 6.54918 6.44262 6.69672 5.95082C6.84426 5.45902 7.09836 4.9918 7.45902 4.54918C7.83607 4.09016 8.34426 3.72131 8.98361 3.44262C9.63934 3.14754 10.4672 3 11.4672 3C12.0902 3 12.7869 3.09016 13.5574 3.27049C14.3443 3.43443 15.0738 3.76229 15.7459 4.2541L15.6475 3.19672H16.9016V8.60656H16.0164Z"
  />
<path d="M5 13.2295H18.9426V14.459H5V13.2295Z" />
</svg>
