<svg viewBox="0 0 24 24" xmlns="http://www.w3.org/2000/svg">
<path
    fill-rule="evenodd"
    clip-rule="evenodd"
    d="M12 21.9C17.4676 21.9 21.9 17.4676 21.9 12C21.9 6.53238 17.4676 2.1 12 2.1C6.53238 2.1 2.1 6.53238 2.1 12C2.1 17.4676 6.53238 21.9 12 21.9ZM12 23C18.0751 23 23 18.0751 23 12C23 5.92487 18.0751 1 12 1C5.92487 1 1 5.92487 1 12C1 18.0751 5.92487 23 12 23Z"
  />
<path
    d="M19.6285 9.40441C19.9251 8.51651 19.2616 7.59999 18.3222 7.6L14.3776 7.60003C13.7394 7.60003 13.2093 8.03047 13.0498 8.60678C12.8314 8.49059 12.5781 8.3955 12.3003 8.35068C11.8712 8.28145 11.4023 8.33611 10.9437 8.58907C10.7768 8.0241 10.2523 7.60484 9.62243 7.60483L5.67784 7.60481C4.73841 7.6048 4.07487 8.52132 4.37148 9.40922L5.29094 12.1616C5.47813 12.7219 6.00442 13.1 6.59729 13.1H9.38777C10.103 13.1 10.6991 12.5545 10.7596 11.8446L10.9391 9.7393C10.9668 9.72174 10.9931 9.70095 11.0173 9.67694C11.4335 9.26439 11.8283 9.20244 12.1518 9.25465C12.5041 9.31148 12.812 9.51289 12.9775 9.67694C13.0034 9.70266 13.0317 9.72469 13.0616 9.74301L13.2404 11.8398C13.3009 12.5497 13.897 13.0952 14.6122 13.0952H17.4027C17.9956 13.0952 18.5219 12.7171 18.7091 12.1568L19.6285 9.40441Z"
  />
<path
    fill-rule="evenodd"
    clip-rule="evenodd"
    d="M6.11109 14.9111C6.32588 14.6963 6.67412 14.6963 6.88891 14.9111C7.74334 15.7655 9.29318 16.7963 11.1259 17.0946C12.9245 17.3874 15.0378 16.9843 17.1111 14.9111C17.3259 14.6963 17.6741 14.6963 17.8889 14.9111C18.1037 15.1259 18.1037 15.4741 17.8889 15.6889C15.5622 18.0157 13.0922 18.5292 10.9491 18.1804C8.84016 17.837 7.08999 16.6678 6.11109 15.6889C5.8963 15.4741 5.8963 15.1259 6.11109 14.9111Z"
  />
</svg>
