<svg viewBox="0 0 24 24" xmlns="http://www.w3.org/2000/svg">
<path
    fill-rule="evenodd"
    clip-rule="evenodd"
    d="M11 5H21V3H11V5ZM11 9H21V7H11V9ZM3 13V11H21V13H3ZM3 15V17H21V15H3ZM3 21V19H21V21H3ZM8.21232 4.17429C8.30956 4.37429 8.35818 4.62857 8.35818 4.93714H9L8.94165 3H3.04862L3 4.93714H3.64182C3.64182 4.47429 3.74878 4.13429 3.96272 3.91714C4.17666 3.7 4.4684 3.58857 4.83793 3.58286H5.28525V7.68857C5.28525 7.91714 5.25608 8.08286 5.19773 8.18571C5.14587 8.28857 5.06807 8.35429 4.96434 8.38286C4.8671 8.41143 4.74392 8.42857 4.59481 8.43429V9H7.43436V8.34C7.36953 8.34 7.24959 8.34286 7.07455 8.34857C6.906 8.34857 6.76661 8.35429 6.6564 8.36571C6.66937 8.29143 6.67909 8.18286 6.68558 8.04C6.69206 7.89714 6.6953 7.74857 6.6953 7.59429V3.57429H7.16207C7.40843 3.56857 7.61912 3.61714 7.79416 3.72C7.97569 3.81714 8.11507 3.96857 8.21232 4.17429Z"
  />
</svg>
