<svg viewBox="0 0 24 24" xmlns="http://www.w3.org/2000/svg">
<path
    fill-rule="evenodd"
    clip-rule="evenodd"
    d="M12 21.9C17.4676 21.9 21.9 17.4676 21.9 12C21.9 6.53238 17.4676 2.1 12 2.1C6.53238 2.1 2.1 6.53238 2.1 12C2.1 17.4676 6.53238 21.9 12 21.9ZM12 23C18.0751 23 23 18.0751 23 12C23 5.92487 18.0751 1 12 1C5.92487 1 1 5.92487 1 12C1 18.0751 5.92487 23 12 23Z"
  />
<path
    fill-rule="evenodd"
    clip-rule="evenodd"
    d="M17.123 10.8721C16.8346 10.9677 16.5234 10.8114 16.4279 10.523C16.2993 10.1348 16.1219 9.71707 15.9156 9.37105C15.6985 9.00702 15.495 8.80005 15.3462 8.72695C15.2862 8.69747 15.2522 8.69793 15.2292 8.70219C15.2021 8.70719 15.1337 8.72865 15.0269 8.83163C14.7973 9.05295 14.4946 9.54968 14.1721 10.523C14.0766 10.8114 13.7654 10.9677 13.477 10.8721C13.1887 10.7766 13.0324 10.4654 13.1279 10.1771C13.4655 9.1582 13.8365 8.45131 14.2635 8.0397C14.4849 7.8262 14.7405 7.67387 15.0293 7.6205C15.322 7.5664 15.5957 7.62392 15.8313 7.7397C16.2738 7.95714 16.6134 8.39348 16.8604 8.80766C17.1181 9.23984 17.3257 9.73518 17.4721 10.1771C17.5676 10.4654 17.4113 10.7766 17.123 10.8721Z"
  />
<path
    fill-rule="evenodd"
    clip-rule="evenodd"
    d="M10.523 10.8721C10.2346 10.9677 9.92345 10.8114 9.82792 10.523C9.69932 10.1348 9.52194 9.71707 9.3156 9.37105C9.09852 9.00702 8.89496 8.80005 8.74621 8.72695C8.68621 8.69747 8.65222 8.69793 8.62916 8.70219C8.60211 8.70719 8.53371 8.72865 8.42689 8.83163C8.19731 9.05295 7.89456 9.54968 7.57211 10.523C7.47658 10.8114 7.16539 10.9677 6.87705 10.8721C6.5887 10.7766 6.43239 10.4654 6.52792 10.1771C6.86547 9.1582 7.23647 8.45131 7.66345 8.0397C7.88491 7.8262 8.14049 7.67387 8.42926 7.6205C8.72203 7.5664 8.9957 7.62392 9.23132 7.7397C9.67382 7.95714 10.0134 8.39348 10.2604 8.80766C10.5181 9.23984 10.7257 9.73518 10.8721 10.1771C10.9676 10.4654 10.8113 10.7766 10.523 10.8721Z"
  />
<path
    fill-rule="evenodd"
    clip-rule="evenodd"
    d="M8.03488 17.1998C7.0987 16.4791 7.81307 15.3 8.8636 15.3H15.1453C16.2634 15.3 16.8447 16.505 15.9922 17.1893C14.473 18.4087 12.8296 18.7315 11.361 18.5553C9.94656 18.3857 8.77011 17.7657 8.03488 17.1998Z"
  />
</svg>
