<svg viewBox="0 0 24 24" xmlns="http://www.w3.org/2000/svg">
<path d="M15 9.5L20 7V12L15 9.5Z" />
<path
    d="M12 3H14V21H12V3ZM7.97849 11.4578C7.40502 11.4578 6.87634 11.3422 6.39247 11.1108C5.9086 10.8651 5.48746 10.547 5.12903 10.1566C4.78853 9.75181 4.51075 9.29638 4.2957 8.79036C4.09857 8.26988 4 7.74217 4 7.20723C4 6.67229 4.09857 6.15181 4.2957 5.64578C4.51075 5.13976 4.81541 4.69157 5.20968 4.3012C5.60394 3.91084 6.08781 3.6 6.66129 3.36868C7.23477 3.12289 7.87993 3 8.59677 3H10V21H7.97849V11.4578Z"
  />
</svg>
