<svg viewBox="0 0 24 24" xmlns="http://www.w3.org/2000/svg">
<path
    fill-rule="evenodd"
    clip-rule="evenodd"
    d="M12 2.1C6.53238 2.1 2.1 6.53238 2.1 12C2.1 17.4676 6.53238 21.9 12 21.9C17.4676 21.9 21.9 17.4676 21.9 12C21.9 6.53238 17.4676 2.1 12 2.1ZM12 1C5.92487 1 1 5.92487 1 12C1 18.0751 5.92487 23 12 23C18.0751 23 23 18.0751 23 12C23 5.92487 18.0751 1 12 1Z"
  />
<path
    fill-rule="evenodd"
    clip-rule="evenodd"
    d="M12.8741 6.90535C11.0755 6.61256 8.96216 7.01566 6.88891 9.08891C6.67412 9.3037 6.32588 9.3037 6.11109 9.08891C5.8963 8.87412 5.8963 8.52588 6.11109 8.31109C8.43784 5.98434 10.9078 5.47077 13.0509 5.81965C15.1598 6.16297 16.91 7.33219 17.8889 8.31109C18.1037 8.52588 18.1037 8.87412 17.8889 9.08891C17.6741 9.3037 17.3259 9.3037 17.1111 9.08891C16.2567 8.23448 14.7068 7.2037 12.8741 6.90535Z"
  />
<path
    d="M14.2 14.2C14.2 12.985 14.6925 12 15.3 12C15.9075 12 16.4 12.985 16.4 14.2C16.4 15.415 15.9075 16.4 15.3 16.4C14.6925 16.4 14.2 15.415 14.2 14.2Z"
  />
<path
    d="M7.6 14.2C7.6 12.985 8.09249 12 8.7 12C9.30751 12 9.8 12.985 9.8 14.2C9.8 15.415 9.30751 16.4 8.7 16.4C8.09249 16.4 7.6 15.415 7.6 14.2Z"
  />
</svg>
