<svg viewBox="0 0 24 24" xmlns="http://www.w3.org/2000/svg">
<path
    fill-rule="evenodd"
    clip-rule="evenodd"
    d="M12 18C15.3137 18 18 15.3137 18 12C18 8.68629 15.3137 6 12 6C8.68629 6 6 8.68629 6 12C6 15.3137 8.68629 18 12 18ZM12 16C14.2091 16 16 14.2091 16 12C16 9.79086 14.2091 8 12 8C9.79086 8 8 9.79086 8 12C8 14.2091 9.79086 16 12 16Z"
  />
<path
    d="M7.05023 5.63604L4.2218 2.80762L2.80759 4.22183L5.63602 7.05026L7.05023 5.63604Z"
  />
<path
    d="M16.9497 18.364L19.7782 21.1924L21.1924 19.7782L18.3639 16.9498L16.9497 18.364Z"
  />
<path d="M4 11H0V13H4V11Z" />
<path d="M20 13H24V11H20V13Z" />
<path d="M13 20H11V24H13V20Z" />
<path
    d="M7.05025 18.364L5.63603 16.9498L2.80761 19.7782L4.22182 21.1924L7.05025 18.364Z"
  />
<path d="M13 4V0H11V4H13Z" />
<path
    d="M18.364 7.05026L21.1924 4.22183L19.7782 2.80762L16.9497 5.63604L18.364 7.05026Z"
  />
</svg>
