<svg viewBox="0 0 24 24" xmlns="http://www.w3.org/2000/svg">
<path
    fill-rule="evenodd"
    clip-rule="evenodd"
    d="M12 21.9C17.4676 21.9 21.9 17.4676 21.9 12C21.9 6.53238 17.4676 2.1 12 2.1C6.53238 2.1 2.1 6.53238 2.1 12C2.1 17.4676 6.53238 21.9 12 21.9ZM12 23C18.0751 23 23 18.0751 23 12C23 5.92487 18.0751 1 12 1C5.92487 1 1 5.92487 1 12C1 18.0751 5.92487 23 12 23Z"
  />
<path
    fill-rule="evenodd"
    clip-rule="evenodd"
    d="M12.8741 15.9348C11.0755 15.642 8.96216 16.0451 6.88891 18.1184C6.67412 18.3332 6.32588 18.3332 6.11109 18.1184C5.8963 17.9036 5.8963 17.5554 6.11109 17.3406C8.43784 15.0138 10.9078 14.5003 13.0509 14.8491C15.1598 15.1924 16.91 16.3617 17.8889 17.3406C18.1037 17.5554 18.1037 17.9036 17.8889 18.1184C17.6741 18.3332 17.3259 18.3332 17.1111 18.1184C16.2567 17.264 14.7068 16.2332 12.8741 15.9348Z"
  />
<path
    d="M6.80514 6.04243C6.5524 5.87394 6.21093 5.94223 6.04243 6.19497C5.87394 6.44771 5.94223 6.78919 6.19497 6.95769L7.97543 8.14466C7.74531 8.5479 7.6 9.14001 7.6 9.8C7.6 11.015 8.09249 12 8.7 12C9.30751 12 9.8 11.015 9.8 9.8C9.8 9.60974 9.78792 9.42512 9.76522 9.24905C9.95455 9.26088 10.1449 9.17435 10.2577 9.00514C10.4262 8.7524 10.3579 8.41093 10.1051 8.24243L6.80514 6.04243Z"
  />
<path
    d="M17.8051 6.95769C18.0579 6.78919 18.1262 6.44771 17.9577 6.19497C17.7892 5.94223 17.4477 5.87394 17.195 6.04243L13.895 8.24243C13.6422 8.41093 13.5739 8.7524 13.7424 9.00514C13.8552 9.17431 14.0455 9.26085 14.2348 9.24905C14.2121 9.42513 14.2 9.60974 14.2 9.8C14.2 11.015 14.6925 12 15.3 12C15.9075 12 16.4 11.015 16.4 9.8C16.4 9.14004 16.2547 8.54796 16.0246 8.14472L17.8051 6.95769Z"
  />
</svg>
