<svg viewBox="0 0 25 24" xmlns="http://www.w3.org/2000/svg">
<path
    fill-rule="evenodd"
    clip-rule="evenodd"
    d="M2.20786 12C4.32612 16.2904 8.02412 19 12.1003 19C16.1765 19 19.8745 16.2904 21.9928 12C19.8745 7.70958 16.1765 5 12.1003 5C8.02412 5 4.32612 7.70957 2.20786 12ZM0.191564 11.5828C2.50256 6.54919 6.90639 3 12.1003 3C17.2942 3 21.6981 6.5492 24.0091 11.5828L24.2006 12L24.0091 12.4172C21.6981 17.4508 17.2942 21 12.1003 21C6.90639 21 2.50256 17.4508 0.191564 12.4172L0 12L0.191564 11.5828ZM12.1004 10C10.9958 10 10.1004 10.8954 10.1004 12C10.1004 13.1046 10.9958 14 12.1004 14C13.2049 14 14.1004 13.1046 14.1004 12C14.1004 10.8954 13.2049 10 12.1004 10ZM8.10036 12C8.10036 9.79086 9.89122 8 12.1004 8C14.3095 8 16.1004 9.79086 16.1004 12C16.1004 14.2091 14.3095 16 12.1004 16C9.89122 16 8.10036 14.2091 8.10036 12Z"
  />
</svg>
