<svg viewBox="0 0 24 24" xmlns="http://www.w3.org/2000/svg">
<path
    fill-rule="evenodd"
    clip-rule="evenodd"
    d="M12 21.9C17.4676 21.9 21.9 17.4676 21.9 12C21.9 6.53238 17.4676 2.1 12 2.1C6.53238 2.1 2.1 6.53238 2.1 12C2.1 17.4676 6.53238 21.9 12 21.9ZM12 23C18.0751 23 23 18.0751 23 12C23 5.92487 18.0751 1 12 1C5.92487 1 1 5.92487 1 12C1 18.0751 5.92487 23 12 23Z"
  />
<path
    fill-rule="evenodd"
    clip-rule="evenodd"
    d="M5.95 9.8C5.95 9.49624 6.19624 9.25 6.5 9.25H9.8C10.1038 9.25 10.35 9.49624 10.35 9.8C10.35 10.1038 10.1038 10.35 9.8 10.35H6.5C6.19624 10.35 5.95 10.1038 5.95 9.8ZM13.65 9.8C13.65 9.49624 13.8962 9.25 14.2 9.25H17.5C17.8038 9.25 18.05 9.49624 18.05 9.8C18.05 10.1038 17.8038 10.35 17.5 10.35H14.2C13.8962 10.35 13.65 10.1038 13.65 9.8ZM8.15 16.4C8.15 16.0962 8.39624 15.85 8.7 15.85H15.3C15.6038 15.85 15.85 16.0962 15.85 16.4C15.85 16.7038 15.6038 16.95 15.3 16.95H8.7C8.39624 16.95 8.15 16.7038 8.15 16.4Z"
  />
</svg>
