<svg viewBox="0 0 24 24" xmlns="http://www.w3.org/2000/svg">
<path
    d="M3 16.5596V15.9656L7.35092 10.7798L3 5.59404V5H5.29587L8.76376 9.11009L12.1995 5H14.5115V5.59404L10.1445 10.7798L14.5115 15.9495V16.5596H12.1995L8.74771 12.4656L5.29587 16.5596H3Z"
  />
<path
    d="M15.7612 20V17.7046C15.7612 17.4899 15.8134 17.2945 15.918 17.1183C16.0281 16.9422 16.1712 16.8018 16.3474 16.6972C16.5235 16.5927 16.719 16.5404 16.9336 16.5404H20.4015C20.4125 16.5404 20.4235 16.5349 20.4346 16.5239C20.4456 16.5128 20.4511 16.5018 20.4511 16.4908V15.2771C20.4511 15.2661 20.4456 15.255 20.4346 15.244C20.4235 15.233 20.4125 15.2275 20.4015 15.2275H16.9832C16.9722 15.2275 16.9612 15.233 16.9501 15.244C16.9391 15.255 16.9336 15.2661 16.9336 15.2771V15.7229H15.7612V15.2193C15.7612 15.0046 15.8134 14.8092 15.918 14.633C16.0281 14.4569 16.1712 14.3165 16.3474 14.2119C16.5235 14.1073 16.719 14.055 16.9336 14.055H20.4511C20.6602 14.055 20.8529 14.1073 21.029 14.2119C21.2107 14.3165 21.3538 14.4569 21.4584 14.633C21.5685 14.8092 21.6235 15.0046 21.6235 15.2193V16.5486C21.6235 16.7633 21.5685 16.9587 21.4584 17.1349C21.3538 17.311 21.2107 17.4541 21.029 17.5642C20.8529 17.6688 20.6602 17.7211 20.4511 17.7211H16.9832C16.9722 17.7211 16.9612 17.7266 16.9501 17.7376C16.9391 17.7486 16.9336 17.7596 16.9336 17.7706V18.778C16.9336 18.789 16.9391 18.8 16.9501 18.811C16.9612 18.822 16.9722 18.8275 16.9832 18.8275H21.6235V20H15.7612Z"
  />
</svg>
