<svg viewBox="0 0 24 24" xmlns="http://www.w3.org/2000/svg">
<path
    d="M9.74348 15H5V14.3596C5.20485 14.2472 5.4225 14.1517 5.65295 14.073C5.8962 13.9831 6.13306 13.9157 6.36351 13.8708L11.3182 3H12.7394L17.5597 13.8708C17.8157 13.9157 18.0718 13.9831 18.3278 14.073C18.5839 14.1517 18.808 14.2472 19 14.3596V15H12.989V14.3596C13.2323 14.2584 13.4947 14.1629 13.7764 14.073C14.0581 13.9831 14.3269 13.9157 14.583 13.8708L13.4691 11.191H9.20576L8.0727 13.8708C8.66164 13.9382 9.21856 14.1011 9.74348 14.3596V15ZM9.66667 10.0955H13.0658L11.8176 6.8764L11.4527 5.42697H11.4143L10.9918 6.91011L9.66667 10.0955Z"
  />
<path fill-rule="evenodd" clip-rule="evenodd" d="M19 21H5V17H19V21Z" />
</svg>
