<svg viewBox="0 0 24 24" xmlns="http://www.w3.org/2000/svg">
<path
    fill-rule="evenodd"
    clip-rule="evenodd"
    d="M19.505 7.22408L14.0468 12.6823C13.2932 13.4359 12.0713 13.4359 11.3177 12.6823C11.1999 12.5645 11.1005 12.4352 11.0196 12.2981L9.63315 13.6846C9.73097 13.8103 9.83765 13.9313 9.95318 14.0468C11.4604 15.5541 13.9041 15.5541 15.4114 14.0468L20.8696 8.58863C22.3768 7.08139 22.3768 4.63767 20.8696 3.13043C19.3623 1.62319 16.9186 1.62319 15.4114 3.13043L12.3411 6.20067L13.7057 7.56521L16.7759 4.49498C17.5295 3.74136 18.7514 3.74136 19.505 4.49498C20.2586 5.2486 20.2586 6.47046 19.505 7.22408Z"
  />
<path
    fill-rule="evenodd"
    clip-rule="evenodd"
    d="M4.49498 16.7759L9.95318 11.3177C10.7068 10.5641 11.9287 10.5641 12.6823 11.3177C12.8001 11.4355 12.8995 11.5648 12.9804 11.7019L14.3668 10.3154C14.269 10.1897 14.1624 10.0687 14.0468 9.95318C12.5396 8.44594 10.0959 8.44594 8.58863 9.95318L3.13043 15.4114C1.62319 16.9186 1.62319 19.3623 3.13043 20.8696C4.63767 22.3768 7.08139 22.3768 8.58863 20.8696L12.3411 17.1171L10.9766 15.7525L7.22408 19.505C6.47046 20.2586 5.2486 20.2586 4.49498 19.505C3.74136 18.7514 3.74136 17.5295 4.49498 16.7759Z"
  />
</svg>
