<svg viewBox="0 0 24 24" xmlns="http://www.w3.org/2000/svg">
<path
    fill-rule="evenodd"
    clip-rule="evenodd"
    d="M12.0007 22L7.48548 18.6111L7.46135 18.5929L7.4116 18.5553C7.36866 18.5228 7.30886 18.4774 7.23458 18.4207L8.48791 16.9397C8.55964 16.9946 8.61705 17.0381 8.65776 17.069L8.70609 17.1055L8.72724 17.1214L12.0005 19.5782L15.2734 17.1209L15.2939 17.1055L15.3422 17.069C15.383 17.0381 15.4404 16.9946 15.5121 16.9397C15.6554 16.8303 15.8568 16.6752 16.0974 16.4871C16.5744 16.1142 17.2239 15.5965 17.8851 15.0381C18.5244 14.4982 19.2715 13.8392 19.8937 13.1969C20.1957 12.8852 20.5776 12.4663 20.9157 11.9904C21.0853 11.7517 21.3126 11.4033 21.5121 10.9727C21.6885 10.5921 22 9.81905 22 8.81545C22 6.10091 19.6548 3.90034 16.7619 3.90034C15.4425 3.90034 14.2371 4.35806 13.3161 5.11351C12.8238 5.51733 12.4127 6.00623 12.109 6.55575C12.0929 6.58489 12.0771 6.61419 12.0616 6.64366C12.0536 6.65893 12.0456 6.67423 12.0378 6.68959L12 6.72674L11.9622 6.68959C11.9544 6.67423 11.9464 6.65893 11.9384 6.64366C11.9229 6.61419 11.9071 6.58489 11.891 6.55575C11.5873 6.00623 11.1762 5.51733 10.6839 5.11351C9.76292 4.35806 8.55747 3.90034 7.23809 3.90034C4.34517 3.90034 2 6.10091 2 8.81545C2 9.81905 2.31151 10.5921 2.48787 10.9727C2.6874 11.4033 2.9147 11.7517 3.08435 11.9904L1.4267 13.0537C1.21639 12.7577 0.920841 12.3069 0.657421 11.7384C0.42562 11.2381 0 10.1893 0 8.81545C0 5.02901 3.2643 2 7.23809 2C9.05857 2 10.7257 2.63381 12 3.68277C13.2743 2.63381 14.9414 2 16.7619 2C20.7357 2 24 5.02901 24 8.81545C24 10.1893 23.5744 11.2381 23.3426 11.7384C23.0792 12.3069 22.7836 12.7577 22.5733 13.0537C22.1552 13.6423 21.698 14.1405 21.3652 14.484C20.6754 15.1959 19.8702 15.9041 19.2137 16.4585C18.5273 17.0382 17.8569 17.5724 17.3683 17.9545C17.1211 18.1478 16.9137 18.3074 16.7654 18.4207C16.6911 18.4774 16.6313 18.5228 16.5884 18.5553L16.5357 18.5951L12.0007 22ZM4.10627 13.1969C3.80426 12.8852 3.42241 12.4663 3.08435 11.9904L1.4267 13.0537C1.84485 13.6423 2.30202 14.1405 2.63481 14.484L4.10627 13.1969ZM4.10627 13.1969L2.63481 14.484C3.32455 15.1959 4.1298 15.9041 4.78629 16.4585C5.47275 17.0382 6.14306 17.5724 6.63171 17.9545C6.87892 18.1478 7.08633 18.3074 7.23458 18.4207L8.48791 16.9397C8.34464 16.8303 8.14316 16.6752 7.9026 16.4871C7.42564 16.1142 6.77612 15.5965 6.11494 15.0381C5.47559 14.4982 4.72853 13.8392 4.10627 13.1969Z"
  />
</svg>
