<svg viewBox="0 0 24 24" xmlns="http://www.w3.org/2000/svg">
<path
    fill-rule="evenodd"
    clip-rule="evenodd"
    d="M7 13H0V11H7V13ZM24 13H17V11H24V13Z"
  />
<path
    d="M11.8698 21C11.2336 21 10.6725 20.8785 10.1866 20.6356C9.71222 20.3927 9.33623 20.0769 9.05857 19.6883C8.79248 19.3117 8.65944 18.9292 8.65944 18.5405C8.65944 18.2004 8.75199 17.9028 8.93709 17.6478C9.1222 17.3927 9.37672 17.2591 9.70065 17.247C9.97831 17.2348 10.1981 17.2895 10.3601 17.4109C10.5221 17.5324 10.6377 17.6781 10.7072 17.8482C10.7881 18.0182 10.8286 18.17 10.8286 18.3036C10.8286 18.4251 10.8113 18.5526 10.7766 18.6862C10.7534 18.8198 10.7072 18.9474 10.6377 19.0688C10.7303 19.2632 10.8923 19.415 11.1236 19.5243C11.355 19.6458 11.598 19.7065 11.8525 19.7065C12.2111 19.7065 12.5004 19.6336 12.7202 19.4879C12.9516 19.3421 13.1251 19.1538 13.2408 18.9231C13.3565 18.7045 13.4143 18.4737 13.4143 18.2308C13.4143 17.8543 13.3102 17.5142 13.102 17.2105C12.9053 16.919 12.6508 16.6518 12.3384 16.4089C12.0376 16.1538 11.7195 15.9291 11.3839 15.7348C11.06 15.5283 10.765 15.334 10.4989 15.1518C10.0824 14.8603 9.6833 14.5445 9.30152 14.2045C8.91974 13.8522 8.60738 13.4514 8.36443 13.002C8.12148 12.5526 8 12.0304 8 11.4352C8 10.9494 8.12148 10.4636 8.36443 9.97773C8.60738 9.4919 8.93709 9.04251 9.35358 8.62955C9.08749 8.27733 8.90817 7.91903 8.81562 7.55466C8.72307 7.17814 8.67101 6.81984 8.65944 6.47976C8.64787 6.12753 8.69993 5.75101 8.81562 5.3502C8.94288 4.94939 9.13955 4.57287 9.40564 4.22065C9.6833 3.85628 10.0419 3.56478 10.4816 3.34615C10.9212 3.11538 11.4591 3 12.0954 3C12.7317 3 13.2871 3.12146 13.7614 3.36437C14.2473 3.60729 14.6233 3.917 14.8894 4.29352C15.167 4.67004 15.3059 5.0587 15.3059 5.45951C15.3059 5.7996 15.2133 6.09717 15.0282 6.35223C14.8547 6.59514 14.6001 6.72875 14.2646 6.75304C13.987 6.75304 13.7672 6.69838 13.6052 6.58907C13.4432 6.46761 13.3218 6.32186 13.2408 6.15182C13.1714 5.98178 13.1367 5.82996 13.1367 5.69636C13.1367 5.56275 13.1482 5.43522 13.1714 5.31377C13.2061 5.18016 13.2581 5.0587 13.3275 4.94939C13.2466 4.75506 13.0962 4.60324 12.8764 4.49393C12.6681 4.37247 12.4309 4.31174 12.1649 4.31174C11.8178 4.31174 11.5286 4.39069 11.2972 4.54858C11.0658 4.69433 10.8923 4.88259 10.7766 5.11336C10.6725 5.33198 10.6146 5.56275 10.603 5.80567C10.6146 6.21862 10.7187 6.583 10.9154 6.89879C11.1121 7.20243 11.3608 7.48178 11.6616 7.73684C11.9624 7.97976 12.2806 8.20445 12.6161 8.41093C12.9631 8.61741 13.2813 8.82389 13.5705 9.03036C13.9986 9.30972 14.3919 9.62551 14.7505 9.97773C15.1208 10.33 15.4215 10.7308 15.6529 11.1802C15.8843 11.6296 16 12.1457 16 12.7287C16 13.2024 15.8727 13.6883 15.6182 14.1862C15.3753 14.6842 15.0571 15.1397 14.6638 15.5526C14.8142 15.7955 14.9646 16.0749 15.115 16.3907C15.2769 16.7065 15.3579 17.0891 15.3579 17.5385C15.3579 17.8785 15.2943 18.249 15.167 18.6498C15.0398 19.0506 14.8373 19.4271 14.5597 19.7794C14.282 20.1437 13.9234 20.4352 13.4837 20.6538C13.0441 20.8846 12.5061 21 11.8698 21ZM13.7787 14.5324C13.8713 14.3623 13.9349 14.1741 13.9696 13.9676C14.0159 13.749 14.039 13.5425 14.039 13.3482C14.039 13.0081 13.9465 12.6984 13.7614 12.419C13.5879 12.1275 13.3565 11.8603 13.0672 11.6174C12.778 11.3623 12.4599 11.1255 12.1128 10.9069C11.7773 10.6761 11.4418 10.4575 11.1063 10.251C10.7824 10.0445 10.4931 9.84413 10.2386 9.6498C10.1576 9.83198 10.094 10.0202 10.0477 10.2146C10.013 10.4089 9.99566 10.6093 9.99566 10.8158C9.99566 11.1559 10.0824 11.4717 10.256 11.7632C10.4411 12.0425 10.6782 12.3097 10.9675 12.5648C11.2567 12.8077 11.5691 13.0445 11.9046 13.2753C12.2516 13.4939 12.5871 13.7065 12.9111 13.913C13.2466 14.1194 13.5358 14.3259 13.7787 14.5324Z"
  />
</svg>
