<svg viewBox="0 0 24 24" xmlns="http://www.w3.org/2000/svg">
<path
    d="M11.4202 3.03342C9.44151 3.17996 7.71216 3.86895 6.22193 5.10383C5.87094 5.39519 5.21506 6.06019 4.95203 6.39355C3.89773 7.73126 3.23562 9.33723 3.03993 11.0314C2.97075 11.6321 2.99467 12.8087 3.0869 13.3692C3.35249 14.97 3.96481 16.3728 4.94264 17.618C5.08184 17.7953 5.40209 18.1458 5.65487 18.3961C7.03579 19.7689 8.73183 20.6199 10.6994 20.9267C11.1452 20.9961 12.375 21.0244 12.8353 20.9755C16.7398 20.5607 19.8671 17.8005 20.7493 13.9922C20.8569 13.5277 21.0337 12.2277 20.9944 12.1883C20.9859 12.1797 20.7553 12.3091 20.4812 12.4754C19.2283 13.2389 18.1625 13.6554 17.0404 13.8225C15.5288 14.0462 14.1086 13.7385 13.0181 12.951C11.0872 11.555 10.3647 8.85129 11.1247 5.86652C11.3246 5.07897 11.5517 4.48853 12.0009 3.58873L12.2956 3L12.0223 3.00428C11.872 3.00686 11.6004 3.01971 11.4202 3.03342ZM9.38429 5.33778C9.38429 5.34549 9.35013 5.49717 9.30743 5.67627C9.10503 6.5298 9.02732 7.21537 9.02732 8.15288C9.02646 8.895 9.05123 9.18636 9.16823 9.82308C9.44578 11.3433 10.135 12.7093 11.1222 13.6991C12.1401 14.7197 13.3537 15.3419 14.8328 15.6033C15.3085 15.6872 16.3487 15.7181 16.8781 15.6641C17.3375 15.6077 17.7936 15.527 18.2445 15.4224L18.3205 15.401L18.2317 15.5553C17.9312 16.0861 17.5626 16.575 17.1352 17.0095C16.2614 17.9249 15.1577 18.5869 13.9404 18.9257C12.3314 19.3807 10.7225 19.2804 9.17079 18.6283C7.8046 18.0483 6.6517 17.0567 5.87147 15.7907C5.09124 14.5246 4.72221 13.0466 4.81539 11.561C4.86578 10.7897 5.01779 10.0853 5.27228 9.44088C5.85813 7.95663 6.8556 6.74233 8.16307 5.92136C8.58409 5.65742 9.38429 5.27522 9.38429 5.33778Z"
  />
</svg>
