<svg viewBox="0 0 24 24" xmlns="http://www.w3.org/2000/svg">
<path
    d="M8.45161 4.54839L9.51613 5.6129L11 4.12903V10.9602H4.16883L5.6129 9.51613L4.54839 8.45161L2.03979 10.9602H2V11L1 12L4.37097 15.371L5.43548 14.3065L4.08924 12.9602H11V19.871L9.33871 18.2097L8.27419 19.2742L12 23L15.5484 19.4516L14.4839 18.3871L13 19.871V12.9602H19.9108L18.3871 14.4839L19.4516 15.5484L23 12L22 11V10.9602H21.9602L19.2742 8.27419L18.2097 9.33871L19.8312 10.9602H13V4.12903L14.3065 5.43548L15.371 4.37097L13 2V1.96021H12.9602L12 1L11.0398 1.96021H11V2L8.45161 4.54839Z"
  />
</svg>
