<svg viewBox="0 0 24 24" xmlns="http://www.w3.org/2000/svg">
<path
    fill-rule="evenodd"
    clip-rule="evenodd"
    d="M12 21.9C17.4676 21.9 21.9 17.4676 21.9 12C21.9 6.53238 17.4676 2.1 12 2.1C6.53238 2.1 2.1 6.53238 2.1 12C2.1 17.4676 6.53238 21.9 12 21.9ZM12 23C18.0751 23 23 18.0751 23 12C23 5.92487 18.0751 1 12 1C5.92487 1 1 5.92487 1 12C1 18.0751 5.92487 23 12 23Z"
  />
<path
    fill-rule="evenodd"
    clip-rule="evenodd"
    d="M9.2946 12.1166L8.23891 11.6541L8.23208 11.6511L8.21647 11.6442C8.20332 11.6384 8.18477 11.6301 8.16156 11.6197C8.11519 11.5989 8.04991 11.5693 7.97175 11.5332C7.81676 11.4616 7.60496 11.3613 7.38698 11.2503C7.17619 11.1429 6.92777 11.0095 6.71376 10.872C6.60989 10.8053 6.47668 10.7139 6.35079 10.6032C6.28762 10.5477 6.20082 10.4653 6.11515 10.3576C6.03943 10.2624 5.89805 10.0657 5.82193 9.7816C5.61602 9.01316 6.07205 8.22329 6.8405 8.01739C7.39338 7.86924 7.95735 8.06375 8.30694 8.47074C8.31114 8.47332 8.31542 8.47593 8.31979 8.47857C8.32225 8.4741 8.32465 8.4697 8.327 8.46536C8.42626 7.93811 8.81742 7.48767 9.3703 7.33953C10.1387 7.13362 10.9286 7.58965 11.1345 8.3581C11.2106 8.6422 11.1865 8.8832 11.1686 9.0035C11.1482 9.13961 11.1143 9.2544 11.0873 9.33407C11.0336 9.49283 10.964 9.63859 10.9074 9.74833C10.7908 9.97444 10.6423 10.2142 10.5135 10.4125C10.3802 10.6176 10.2469 10.8104 10.1485 10.95C10.0989 11.0203 10.0571 11.0786 10.0274 11.1197C10.0125 11.1404 10.0005 11.1568 9.99207 11.1684L9.982 11.1822L9.97772 11.188L9.2946 12.1166Z"
  />
<path
    fill-rule="evenodd"
    clip-rule="evenodd"
    d="M14.7054 12.1163L14.0224 11.1879L14.018 11.1819L14.0079 11.1681C13.9994 11.1565 13.9875 11.1401 13.9726 11.1195C13.9428 11.0783 13.9011 11.0201 13.8514 10.9497C13.753 10.8102 13.6198 10.6174 13.4865 10.4122C13.3576 10.2139 13.2092 9.97417 13.0926 9.74806C13.036 9.63832 12.9664 9.49256 12.9127 9.3338C12.8857 9.25413 12.8518 9.13934 12.8314 9.00323C12.8134 8.88294 12.7893 8.64193 12.8655 8.35783C13.0714 7.58939 13.8612 7.13336 14.6297 7.33926C15.1826 7.4874 15.5737 7.93784 15.673 8.46509C15.6753 8.46943 15.6777 8.47383 15.6802 8.4783C15.6846 8.47566 15.6888 8.47305 15.693 8.47047C16.0426 8.06348 16.6066 7.86898 17.1595 8.01712C17.9279 8.22302 18.384 9.01289 18.178 9.78134C18.1019 10.0654 17.9605 10.2621 17.8848 10.3573C17.7992 10.465 17.7124 10.5474 17.6492 10.6029C17.5233 10.7136 17.3901 10.805 17.2862 10.8717C17.0722 11.0093 16.8238 11.1426 16.613 11.25C16.395 11.361 16.1832 11.4613 16.0282 11.533C15.9501 11.5691 15.8848 11.5986 15.8384 11.6194C15.8152 11.6298 15.7967 11.6381 15.7835 11.6439L15.7679 11.6508L15.7613 11.6537L14.7054 12.1163Z"
  />
<path
    fill-rule="evenodd"
    clip-rule="evenodd"
    d="M8.03488 17.1998C7.0987 16.4791 7.81307 15.3 8.8636 15.3H15.1453C16.2634 15.3 16.8447 16.505 15.9922 17.1893C14.473 18.4087 12.8296 18.7315 11.361 18.5553C9.94656 18.3857 8.77011 17.7657 8.03488 17.1998Z"
  />
</svg>
