<svg viewBox="0 0 24 24" xmlns="http://www.w3.org/2000/svg">
<path
    d="M4.14824 3H10.6706V3.80471C10.2047 4.10118 9.66823 4.30588 9.06118 4.41882V12.5718C9.06118 13.2635 9.13882 13.8424 9.29412 14.3082C9.44941 14.7741 9.67529 15.1553 9.97176 15.4518C10.2682 15.7341 10.6212 15.9388 11.0306 16.0659C11.4541 16.1929 11.9271 16.2565 12.4494 16.2565C12.9153 16.2565 13.3388 16.1929 13.72 16.0659C14.1153 15.9247 14.4541 15.7059 14.7365 15.4094C15.0329 15.1129 15.2588 14.7247 15.4141 14.2447C15.5694 13.7647 15.6471 13.1718 15.6471 12.4659V4.52471C15.3224 4.45412 14.9835 4.35529 14.6306 4.22824C14.2918 4.10118 14.0094 3.96 13.7835 3.80471V3H19.0353V3.80471C18.7812 3.98824 18.4988 4.13647 18.1882 4.24941C17.8776 4.36235 17.5741 4.45412 17.2776 4.52471V12.4871C17.2776 14.2941 16.7976 15.6706 15.8376 16.6165C14.8918 17.5482 13.5506 18.0141 11.8141 18.0141C9.92235 18.0141 8.46118 17.5906 7.43059 16.7435C6.4 15.8965 5.88471 14.5412 5.88471 12.6776V4.41882C5.60235 4.37647 5.30588 4.30588 4.99529 4.20706C4.68471 4.09412 4.40235 3.96 4.14824 3.80471V3Z"
  />
<path d="M4 19.9412H19.1412V21H4V19.9412Z" />
</svg>
