<svg viewBox="0 0 24 24" xmlns="http://www.w3.org/2000/svg">
<path
    d="M3 20V19.409L7.32847 14.25L3 9.09095V8.49998H5.28403L8.73403 12.5889L12.1521 8.49998H14.4521V9.09095L10.1076 14.25L14.4521 19.393V20H12.1521L8.71806 15.9271L5.28403 20H3Z"
  />
<path
    d="M15.6953 10.9143V8.63071C15.6953 8.41714 15.7473 8.22274 15.8514 8.0475C15.9609 7.87226 16.1033 7.73262 16.2785 7.62857C16.4538 7.52452 16.6482 7.4725 16.8618 7.4725H20.3118C20.3227 7.4725 20.3337 7.46702 20.3446 7.45607C20.3556 7.44512 20.361 7.43417 20.361 7.42321V6.21571C20.361 6.20476 20.3556 6.19381 20.3446 6.18286C20.3337 6.1719 20.3227 6.16643 20.3118 6.16643H16.911C16.9001 6.16643 16.8891 6.1719 16.8782 6.18286C16.8672 6.19381 16.8618 6.20476 16.8618 6.21571V6.65929H15.6953V6.15821C15.6953 5.94464 15.7473 5.75024 15.8514 5.575C15.9609 5.39976 16.1033 5.26012 16.2785 5.15607C16.4538 5.05202 16.6482 5 16.8618 5H20.361C20.5691 5 20.7608 5.05202 20.936 5.15607C21.1168 5.26012 21.2591 5.39976 21.3632 5.575C21.4727 5.75024 21.5275 5.94464 21.5275 6.15821V7.48071C21.5275 7.69429 21.4727 7.88869 21.3632 8.06393C21.2591 8.23917 21.1168 8.38155 20.936 8.49107C20.7608 8.59512 20.5691 8.64714 20.361 8.64714H16.911C16.9001 8.64714 16.8891 8.65262 16.8782 8.66357C16.8672 8.67452 16.8618 8.68548 16.8618 8.69643V9.69857C16.8618 9.70952 16.8672 9.72048 16.8782 9.73143C16.8891 9.74238 16.9001 9.74786 16.911 9.74786H21.5275V10.9143H15.6953Z"
  />
</svg>
