<svg viewBox="0 0 24 24" xmlns="http://www.w3.org/2000/svg">
<path
    fill-rule="evenodd"
    clip-rule="evenodd"
    d="M12 21.9C17.4676 21.9 21.9 17.4676 21.9 12C21.9 6.53238 17.4676 2.1 12 2.1C6.53238 2.1 2.1 6.53238 2.1 12C2.1 17.4676 6.53238 21.9 12 21.9ZM12 23C18.0751 23 23 18.0751 23 12C23 5.92487 18.0751 1 12 1C5.92487 1 1 5.92487 1 12C1 18.0751 5.92487 23 12 23Z"
  />
<path
    fill-rule="evenodd"
    clip-rule="evenodd"
    d="M12.8741 15.9348C11.0755 15.642 8.96216 16.0451 6.88891 18.1183C6.67412 18.3331 6.32588 18.3331 6.11109 18.1183C5.8963 17.9035 5.8963 17.5553 6.11109 17.3405C8.43784 15.0138 10.9078 14.5002 13.0509 14.8491C15.1598 15.1924 16.91 16.3616 17.8889 17.3405C18.1037 17.5553 18.1037 17.9035 17.8889 18.1183C17.6741 18.3331 17.3259 18.3331 17.1111 18.1183C16.2567 17.2639 14.7068 16.2331 12.8741 15.9348Z"
  />
<path
    d="M9.8 9.8C9.8 11.015 9.30751 12 8.7 12C8.09249 12 7.6 11.015 7.6 9.8C7.6 8.58497 8.09249 7.6 8.7 7.6C9.30751 7.6 9.8 8.58497 9.8 9.8Z"
  />
<path
    d="M16.4 9.8C16.4 11.015 15.9075 12 15.3 12C14.6925 12 14.2 11.015 14.2 9.8C14.2 8.58497 14.6925 7.6 15.3 7.6C15.9075 7.6 16.4 8.58497 16.4 9.8Z"
  />
</svg>
