<svg viewBox="0 0 24 24" xmlns="http://www.w3.org/2000/svg">
<path
    fill-rule="evenodd"
    clip-rule="evenodd"
    d="M8 4.5C8 3.94772 8.44772 3.5 9 3.5H20C20.5523 3.5 21 3.94772 21 4.5C21 5.05228 20.5523 5.5 20 5.5H9C8.44772 5.5 8 5.05228 8 4.5Z"
  />
<path
    fill-rule="evenodd"
    clip-rule="evenodd"
    d="M8 12C8 11.4477 8.44772 11 9 11H20C20.5523 11 21 11.4477 21 12C21 12.5523 20.5523 13 20 13H9C8.44772 13 8 12.5523 8 12Z"
  />
<path
    fill-rule="evenodd"
    clip-rule="evenodd"
    d="M8 19.5C8 18.9477 8.44772 18.5 9 18.5H20C20.5523 18.5 21 18.9477 21 19.5C21 20.0523 20.5523 20.5 20 20.5H9C8.44772 20.5 8 20.0523 8 19.5Z"
  />
<path
    d="M6 4.5C6 5.32843 5.32843 6 4.5 6C3.67157 6 3 5.32843 3 4.5C3 3.67157 3.67157 3 4.5 3C5.32843 3 6 3.67157 6 4.5Z"
  />
<path
    d="M6 12C6 12.8284 5.32843 13.5 4.5 13.5C3.67157 13.5 3 12.8284 3 12C3 11.1716 3.67157 10.5 4.5 10.5C5.32843 10.5 6 11.1716 6 12Z"
  />
<path
    d="M6 19.5C6 20.3284 5.32843 21 4.5 21C3.67157 21 3 20.3284 3 19.5C3 18.6716 3.67157 18 4.5 18C5.32843 18 6 18.6716 6 19.5Z"
  />
</svg>
