<svg viewBox="0 0 24 24" xmlns="http://www.w3.org/2000/svg">
<path
    d="M5 21.0623V19.3642C5.39451 19.347 5.72041 19.2956 5.9777 19.2098C6.25214 19.124 6.45798 18.9268 6.5952 18.618C6.74957 18.3093 6.82676 17.8119 6.82676 17.1258V7.27156C6.82676 6.80844 6.83533 6.36247 6.85249 5.93365C6.88679 5.50484 6.91252 5.17893 6.92967 4.95595C6.65523 4.9731 6.31218 4.99026 5.90051 5.00741C5.48885 5.00741 5.18868 5.01598 5 5.03314V3.052C6.18353 3.03485 7.36707 3.02628 8.5506 3.02628C9.75129 3.02628 10.9434 3.0177 12.1269 3.00055C14.1852 2.98339 15.8148 3.36933 17.0154 4.15835C18.2333 4.93022 18.7993 6.10518 18.7136 7.68322C18.6792 8.18065 18.5249 8.6695 18.2504 9.14978C17.976 9.6129 17.5643 10.0331 17.0154 10.4105C16.4837 10.7879 15.8148 11.088 15.0086 11.311V11.3367C16.7238 11.6112 17.9846 12.1858 18.7907 13.0606C19.5969 13.9182 20 14.8788 20 15.9422C20 17.0572 19.7256 18.0005 19.1767 18.7724C18.6449 19.5271 17.9074 20.1017 16.964 20.4963C16.0206 20.8736 14.9485 21.0623 13.7479 21.0623H5ZM10.4545 19.2355C10.7633 19.2355 11.0549 19.2355 11.3293 19.2355C11.6038 19.2355 11.8782 19.2355 12.1527 19.2355C12.4271 19.2184 12.693 19.2098 12.9503 19.2098C13.9966 19.1584 14.7599 18.8239 15.2401 18.2064C15.7204 17.5889 15.9605 16.8084 15.9605 15.865C15.9605 15.076 15.7976 14.4585 15.4717 14.0126C15.1458 13.5494 14.7256 13.2235 14.211 13.0349C13.7136 12.8462 13.1904 12.7518 12.6415 12.7518C12.2127 12.7518 11.8439 12.7518 11.5352 12.7518C11.2264 12.7518 10.9005 12.7604 10.5575 12.7776V16.9714C10.5575 17.4345 10.5489 17.8719 10.5317 18.2836C10.5146 18.6952 10.4889 19.0126 10.4545 19.2355ZM10.5575 10.9508L11.8954 10.9251C12.6158 10.9079 13.1818 10.745 13.5935 10.4362C14.0223 10.1275 14.3225 9.71581 14.494 9.20123C14.6827 8.6695 14.777 8.09489 14.777 7.47739C14.777 6.79129 14.6398 6.25955 14.3654 5.88219C14.0909 5.48768 13.7479 5.20466 13.3362 5.03314C12.9245 4.86161 12.4957 4.78442 12.0497 4.80158C11.7753 4.80158 11.5266 4.84446 11.3036 4.93022C11.0806 5.01598 10.9005 5.21324 10.7633 5.52199C10.6261 5.81358 10.5575 6.29386 10.5575 6.96281V10.9508Z"
  />
</svg>
