<svg viewBox="0 0 24 24" xmlns="http://www.w3.org/2000/svg">
<path
    fill-rule="evenodd"
    clip-rule="evenodd"
    d="M15.4114 11.3177L19.505 7.22408C20.2586 6.47046 20.2586 5.2486 19.505 4.49498C18.7514 3.74136 17.5295 3.74136 16.7759 4.49498L12.6823 8.58863L11.3177 7.22408L15.4114 3.13043C16.9186 1.62319 19.3623 1.62319 20.8696 3.13043C22.3768 4.63767 22.3768 7.08139 20.8696 8.58863L16.7759 12.6823L15.4114 11.3177Z"
  />
<path
    fill-rule="evenodd"
    clip-rule="evenodd"
    d="M9.2709 12L4.49498 16.7759C3.74136 17.5295 3.74136 18.7514 4.49498 19.505C5.2486 20.2586 6.47046 20.2586 7.22408 19.505L12 14.7291L13.3645 16.0936L8.58863 20.8696C7.08139 22.3768 4.63767 22.3768 3.13043 20.8696C1.62319 19.3623 1.62319 16.9186 3.13043 15.4114L7.90635 10.6355L9.2709 12Z"
  />
<path
    fill-rule="evenodd"
    clip-rule="evenodd"
    d="M16.4348 17.1171L6.88294 7.56521L8.24749 6.20067L17.7993 15.7525L16.4348 17.1171Z"
  />
</svg>
