<svg viewBox="0 0 24 24" xmlns="http://www.w3.org/2000/svg">
<path
    fill-rule="evenodd"
    clip-rule="evenodd"
    d="M12 21.9C17.4676 21.9 21.9 17.4676 21.9 12C21.9 6.53238 17.4676 2.1 12 2.1C6.53238 2.1 2.1 6.53238 2.1 12C2.1 17.4676 6.53238 21.9 12 21.9ZM12 23C18.0751 23 23 18.0751 23 12C23 5.92487 18.0751 1 12 1C5.92487 1 1 5.92487 1 12C1 18.0751 5.92487 23 12 23Z"
  />
<path
    fill-rule="evenodd"
    clip-rule="evenodd"
    d="M6.11109 14.9111C6.32588 14.6963 6.67412 14.6963 6.88891 14.9111C7.74334 15.7655 9.29318 16.7963 11.1259 17.0946C12.9245 17.3874 15.0378 16.9843 17.1111 14.9111C17.3259 14.6963 17.6741 14.6963 17.8889 14.9111C18.1037 15.1259 18.1037 15.4741 17.8889 15.6889C15.5622 18.0157 13.0922 18.5292 10.9491 18.1804C8.84016 17.837 7.08999 16.6678 6.11109 15.6889C5.8963 15.4741 5.8963 15.1259 6.11109 14.9111Z"
  />
<path
    d="M9.8 9.8C9.8 11.015 9.30751 12 8.7 12C8.09249 12 7.6 11.015 7.6 9.8C7.6 8.58497 8.09249 7.6 8.7 7.6C9.30751 7.6 9.8 8.58497 9.8 9.8Z"
  />
<path
    fill-rule="evenodd"
    clip-rule="evenodd"
    d="M16.7641 9.93718C16.5365 10.1383 16.1889 10.1168 15.9878 9.88914C15.7687 9.64113 15.3761 9.35265 14.9391 9.27212C14.5494 9.20032 14.0525 9.2775 13.5122 9.88914C13.3111 10.1168 12.9635 10.1383 12.7358 9.93718C12.5082 9.73607 12.4867 9.38849 12.6878 9.16085C13.4675 8.27833 14.3456 8.04423 15.1384 8.19033C15.8839 8.32769 16.4813 8.7863 16.8122 9.16085C17.0133 9.38849 16.9918 9.73607 16.7641 9.93718Z"
  />
</svg>
