<svg viewBox="0 0 24 24" xmlns="http://www.w3.org/2000/svg">
<path d="M9 9.5L4 12V7L9 9.5Z" />
<path
    d="M18 3H20V21H18V3ZM13.9785 11.4578C13.405 11.4578 12.8763 11.3422 12.3925 11.1108C11.9086 10.8651 11.4875 10.547 11.129 10.1566C10.7885 9.75181 10.5108 9.29638 10.2957 8.79036C10.0986 8.26988 10 7.74217 10 7.20723C10 6.67229 10.0986 6.15181 10.2957 5.64578C10.5108 5.13976 10.8154 4.69157 11.2097 4.3012C11.6039 3.91084 12.0878 3.6 12.6613 3.36868C13.2348 3.12289 13.8799 3 14.5968 3H16V21H13.9785V11.4578Z"
  />
</svg>
